<svg xmlns="http://www.w3.org/2000/svg" viewBox="0 0 512 512">
  <rect width="512" height="512" fill="#0f172a" rx="100"/>
  <path fill="#b45309" d="M256 64c-8.8 0-16 7.2-16 16v32H128c-17.7 0-32 14.3-32 32v32c0 17.7 14.3 32 32 32h16v128c0 35.3 28.7 64 64 64s64-28.7 64-64V208h38.1c-12.7 15.6-21.1 35.3-23.4 56.6-2.6 24.6 6 49.6 23.4 67 17.4 17.4 42.4 26 67 23.4 21.3-2.3 41-10.7 56.6-23.4H448v-80c0-17.7-14.3-32-32-32h-32v-48c0-17.7-14.3-32-32-32H272V80c0-8.8-7.2-16-16-16zm-80 96h64v176c0 8.8-7.2 16-16 16s-16-7.2-16-16V160zm192 48h48v48h-48v-48z"/>
  <!-- Simplified Scale Icon -->
  <g transform="translate(106, 126) scale(0.6)">
      <path fill="#bfa15f" d="M245,0c-9.5,0-17.2,7.7-17.2,17.2v33.1H81.6c-9.5,0-17.1,7.6-17.2,17.1c0,0.1,0,0.1,0,0.2v25.2h10.9
		c22,46.6,69.5,78.8,124.6,78.8c3.2,0,6.3-0.1,9.5-0.3v178h-74.4c-9.5,0-17.2,7.7-17.2,17.2c0,9.5,7.7,17.2,17.2,17.2h171.1
		c9.5,0,17.2-7.7,17.2-17.2c0-9.5-7.7-17.2-17.2-17.2h-74.4v-178c3.1,0.2,6.3,0.3,9.5,0.3c55.1,0,102.6-32.2,124.6-78.8h10.9V67.5
		c0-0.1,0-0.1,0-0.2c-0.1-9.4-7.7-17.1-17.2-17.1H262.2V17.2C262.2,7.7,254.5,0,245,0z M99.6,75.9h100.8v0.8
		c0,37.1-22.3,69.1-54.7,85C118.7,143.2,101.9,111.9,99.6,75.9z M289.6,75.9h100.8c-2.3,36-19.1,67.3-46.1,85.8
		c-32.4-15.9-54.7-47.9-54.7-85V75.9z"/>
  </g>
</svg>
