<svg version="1.0" xmlns="http://www.w3.org/2000/svg"
 viewBox="0 0 600 612"
 preserveAspectRatio="xMidYMid meet">
<g transform="translate(0,612) scale(0.1,-0.1)"
fill="currentColor" stroke="none">
<path d="M3135 5904 c-16 -3 -63 -15 -104 -26 -133 -39 -170 -105 -116 -207
20 -38 25 -63 27 -141 3 -80 7 -100 26 -127 23 -32 23 -33 9 -140 -8 -59 -12
-114 -9 -120 2 -7 18 -17 36 -21 25 -7 32 -14 34 -38 2 -16 7 -33 11 -39 4 -5
15 -31 25 -58 25 -67 74 -87 124 -51 32 22 35 14 12 -31 -11 -22 -20 -54 -20
-72 0 -22 -9 -43 -28 -64 -41 -46 -98 -49 -233 -14 -163 42 -245 36 -336 -26
-52 -36 -104 -99 -229 -274 -101 -143 -219 -290 -269 -335 l-27 -25 20 42 c25
47 25 47 -58 83 -173 76 -352 201 -408 284 -18 28 -38 78 -47 119 -9 40 -23
82 -31 94 -15 24 -71 56 -116 67 l-28 6 0 105 0 105 -55 0 -55 0 0 -94 0 -95
-32 -3 c-24 -2 -36 -10 -45 -29 -17 -36 -35 -251 -24 -282 10 -25 38 -51 89
-78 l30 -17 6 -143 c3 -79 8 -228 12 -331 l5 -186 -58 -7 c-188 -20 -361 -62
-502 -122 -83 -36 -84 -36 -100 -16 -34 44 -90 55 -141 28 -16 -8 -34 -24 -40
-34 -24 -46 0 -133 40 -146 11 -3 20 -11 20 -17 0 -13 -167 -472 -182 -501 -8
-16 -21 -18 -88 -16 -44 2 -81 1 -84 -1 -2 -3 5 -29 16 -57 58 -156 260 -266
433 -236 135 23 240 97 295 206 47 93 45 96 -56 99 l-86 3 -89 240 c-48 132
-88 248 -89 257 0 9 9 20 21 23 12 4 29 26 40 50 18 40 22 43 83 59 117 29
310 56 443 63 l133 6 0 -101 c0 -61 4 -102 10 -102 6 0 10 40 10 101 l0 102
133 -6 c132 -6 315 -33 443 -65 61 -15 69 -20 76 -47 4 -16 21 -41 38 -55 l31
-26 -86 -239 c-48 -132 -91 -247 -95 -255 -7 -11 -28 -15 -92 -15 -83 0 -83 0
-79 -25 10 -75 108 -191 198 -235 205 -100 459 -16 550 181 14 30 22 61 19 69
-4 10 -28 15 -87 17 l-82 3 -88 240 c-49 132 -88 245 -89 252 0 6 16 27 35 46
49 49 49 95 0 144 -33 33 -39 35 -82 30 -35 -4 -53 -12 -70 -31 l-23 -27 -112
45 c-134 54 -282 91 -421 106 -56 7 -103 13 -105 15 -2 2 -1 144 3 314 l8 311
42 0 c38 0 46 -4 86 -52 79 -95 312 -329 402 -404 147 -123 204 -141 294 -89
57 33 316 291 423 422 41 51 76 90 78 89 1 -2 -2 -34 -8 -71 -17 -107 12 -231
69 -298 52 -60 71 -96 80 -144 21 -109 -24 -292 -156 -633 -92 -238 -113 -318
-113 -425 0 -134 36 -225 189 -473 153 -249 190 -344 198 -513 9 -168 -26
-291 -124 -443 -57 -90 -194 -225 -298 -295 -106 -71 -110 -76 -45 -51 119 47
341 163 455 238 215 141 356 282 433 430 54 104 74 186 74 302 -1 106 -18 183
-62 277 -40 87 -74 133 -230 317 -187 221 -237 288 -281 379 -46 96 -61 162
-57 258 l3 74 33 -101 c59 -180 150 -296 392 -497 83 -70 161 -145 203 -197
86 -107 159 -253 193 -385 22 -88 25 -115 21 -225 -3 -102 -9 -137 -29 -192
-38 -100 -85 -174 -163 -253 -85 -87 -160 -138 -306 -210 -62 -30 -108 -55
-102 -55 18 0 178 57 245 88 223 101 395 275 455 459 44 134 31 350 -32 499
-27 64 -8 49 51 -40 142 -218 198 -455 160 -672 -47 -273 -230 -511 -565 -735
-73 -49 -129 -89 -125 -89 5 0 50 11 99 24 293 79 514 225 646 429 210 324
173 833 -85 1154 -79 97 -146 160 -325 302 -74 58 -189 149 -256 202 -213 169
-322 297 -378 445 -19 51 -22 78 -21 194 0 96 5 147 16 175 l15 39 6 -94 c12
-182 68 -322 176 -433 71 -74 115 -106 256 -182 247 -133 434 -293 551 -471
32 -50 65 -99 72 -110 11 -16 12 -1 7 89 -13 255 -99 585 -208 802 -77 153
-100 273 -78 401 7 38 41 141 76 229 74 187 92 244 101 325 4 33 9 60 13 60
17 0 64 -58 112 -137 92 -154 190 -292 338 -478 79 -99 175 -225 214 -280 79
-111 119 -153 359 -373 92 -85 184 -178 205 -209 37 -54 38 -56 35 -141 -1
-48 4 -116 12 -152 8 -36 13 -66 12 -67 -1 -1 -38 19 -82 46 -89 55 -113 64
-133 52 -22 -14 -3 -49 76 -138 46 -52 71 -88 67 -96 -4 -6 -80 -100 -169
-207 -205 -247 -623 -754 -731 -885 -45 -55 -181 -220 -302 -367 l-219 -266
-53 -142 c-28 -78 -50 -143 -48 -145 2 -2 67 32 143 75 l140 79 139 168 c76
92 302 366 501 608 671 813 776 940 785 943 5 2 48 -22 97 -53 96 -61 129 -73
146 -56 17 17 -9 60 -91 150 -59 66 -71 84 -63 98 20 38 71 75 147 108 43 19
80 40 82 48 1 7 -11 28 -28 46 -43 45 -37 66 20 67 69 2 70 2 70 35 0 62 -90
151 -168 165 -44 8 -64 -13 -55 -60 5 -30 5 -30 -11 -10 -8 12 -42 71 -75 131
-98 183 -281 419 -571 738 -96 105 -147 183 -286 432 -63 113 -134 233 -156
267 -55 80 -150 180 -204 211 -119 70 -277 73 -467 8 -132 -45 -138 -42 -29
12 153 76 277 104 384 85 85 -15 132 -37 202 -95 l59 -48 -7 42 c-33 209 -167
313 -364 282 -42 -6 -144 -38 -240 -75 -317 -121 -450 -155 -598 -156 -97 0
-161 16 -226 56 -58 37 -54 45 9 17 43 -20 79 -28 138 -31 117 -6 158 6 498
147 101 42 176 64 262 76 50 8 50 8 -70 30 -180 34 -216 54 -233 130 -9 43 -5
115 8 115 4 0 15 -10 26 -21 16 -18 27 -20 70 -16 130 13 207 105 207 248 0
112 -61 206 -181 280 -59 36 -63 40 -32 34 19 -4 50 -13 69 -21 l33 -14 -7 28
c-13 53 -65 149 -106 195 -90 104 -189 147 -344 152 -55 2 -113 1 -130 -1z
m-2483 -2785 c23 -104 39 -191 36 -194 -3 -3 -52 -4 -110 -3 l-104 3 46 205
c25 113 50 219 55 235 l8 30 13 -44 c8 -24 33 -129 56 -232z m1523 28 c26
-114 44 -214 41 -222 -4 -12 -26 -15 -98 -15 -51 0 -98 4 -104 8 -7 5 6 79 42
237 29 127 53 232 54 235 4 13 21 -52 65 -243z m3057 -941 c-59 -79 -1092
-1326 -1099 -1326 -2 0 17 28 45 62 27 35 239 306 472 603 608 776 551 707
572 688 11 -9 15 -21 10 -27z m-1102 -1339 c0 -2 -10 -12 -22 -23 l-23 -19 19
23 c18 21 26 27 26 19z"/>
</g>
</svg>
